<?xml version="1.0" encoding="utf-8"?>
<!-- Generator: Adobe Illustrator 21.0.2, SVG Export Plug-In . SVG Version: 6.00 Build 0)  -->
<svg version="1.1" id="Слой_1" xmlns="http://www.w3.org/2000/svg" xmlns:xlink="http://www.w3.org/1999/xlink" x="0px" y="0px"
	 viewBox="0 0 644 492" style="enable-background:new 0 0 644 492;" xml:space="preserve">
<style type="text/css">
	.st0{fill:#FFFFFF;}
	.st1{fill:#030047;}
	.st2{fill:#FFC2D6;}
</style>
<g id="_x34_">
	<g id="Bottom_99_">
		<g id="Tablet_18_">
			<g>
				<path class="st0" d="M313.8,404.6h-189c-10.9,0-19.8-8.8-19.8-19.8v-270c0-10.9,8.8-19.8,19.8-19.8h189
					c10.9,0,19.8,8.8,19.8,19.8v270C333.6,395.7,324.7,404.6,313.8,404.6z"/>
				<path class="st1" d="M313.8,405.3h-189c-11.3,0-20.5-9.2-20.5-20.5v-270c0-11.3,9.2-20.5,20.5-20.5h189
					c11.3,0,20.5,9.2,20.5,20.5v270C334.3,396.1,325.1,405.3,313.8,405.3z M124.8,95.8c-10.5,0-19,8.5-19,19v270
					c0,10.5,8.5,19,19,19h189c10.5,0,19-8.5,19-19v-270c0-10.5-8.5-19-19-19H124.8z"/>
			</g>
			<g>
				<path class="st2" d="M317.5,130.6V357c0,10.9-8.8,19.8-19.8,19.8H140.9c-10.9,0-19.8-8.8-19.8-19.8V130.6
					c0-10.9,8.8-19.7,19.8-19.7h156.8C308.6,110.9,317.5,119.7,317.5,130.6z"/>
			</g>
			<g>
				<path class="st1" d="M242.1,143.3c25.2,25.1,50.3,50.3,75.4,75.5v-88.1c0-10.9-8.8-19.7-19.8-19.7h-88.2
					C220.4,121.7,231.2,132.5,242.1,143.3z"/>
			</g>
			<g>
				<rect x="214" y="384.2" class="st1" width="10.6" height="10.6"/>
			</g>
		</g>
		<g id="Legs_64_">
			<g>
				<path class="st0" d="M466.7,369.7l0.7,26.7l-50.5,0.5c0,0-0.3-5.5,9.3-9.5c9.6-4.1,11.6-20.2,11.6-20.2L466.7,369.7z"/>
				<path class="st1" d="M416.2,397.6l0-0.7c0-0.2-0.2-6,9.8-10.2c9.1-3.8,11.1-19.5,11.1-19.6l0.1-0.7l30.3,2.8l0.7,28.1
					L416.2,397.6z M438.5,367.9c-0.5,3.3-3.1,16.4-11.9,20.1c-6.9,2.9-8.4,6.5-8.8,8.1l48.9-0.4l-0.6-25.2L438.5,367.9z"/>
			</g>
			<g>
				<path class="st1" d="M481.7,265.1c-25.5,25.5-50.5,67-50.5,109l38.3,2.5c0,0,2.5-35.8,14.8-51c16.5-20.4,36-53,36.8-62.5
					C521.7,253.6,481.7,265.1,481.7,265.1z"/>
			</g>
			<g>
				<path class="st1" d="M437,382.6c-1.6-1.1-3.3-1.8-5.1-2.3c-0.6-0.2-0.9,0.8-0.3,1c1.8,0.4,3.4,1.2,4.9,2.2
					C437,383.9,437.5,383,437,382.6z"/>
			</g>
			<g>
				<path class="st1" d="M433.4,386.2c-1.3-0.5-2.5-1.3-3.6-2.2c-0.5-0.4-1.2,0.3-0.7,0.7c1.2,1.1,2.5,1.9,4,2.5
					C433.7,387.4,434,386.5,433.4,386.2z"/>
			</g>
			<g>
				<path class="st0" d="M568.1,345.3l22.6,14.1l-27.4,42.4c0,0-4.7-2.8-2.8-13C562.4,378.6,550,368,550,368L568.1,345.3z"/>
				<path class="st1" d="M563.6,402.8l-0.6-0.4c-0.2-0.1-5.1-3.2-3.2-13.8c1.8-9.7-10.2-20-10.3-20.1l-0.6-0.5l19-23.8l23.9,14.8
					L563.6,402.8z M551,367.9c2.4,2.2,12,11.6,10.3,21c-1.4,7.4,0.8,10.7,1.9,11.8l26.5-41.1l-21.4-13.3L551,367.9z"/>
			</g>
			<g>
				<path class="st1" d="M488.9,275.3c8.1,63.8,29.3,80.8,64.4,103.9l22.1-30.6c0,0-9.8-7.6-20.6-16.8c-8.5-7.2-18.3-14.8-20-25.3
					c-8.2-52.2-9.1-55.2-16.7-61C510.5,239.7,488.9,275.3,488.9,275.3z"/>
			</g>
			<g>
				<path class="st1" d="M562.5,377.3c-1.8,0.7-3.3,1.7-4.7,3c-0.5,0.4,0.2,1.2,0.7,0.8c1.3-1.2,2.8-2.2,4.5-2.9
					C563.6,377.9,563.1,377,562.5,377.3z"/>
			</g>
			<g>
				<path class="st1" d="M563.6,382.2c-1.2,0.8-2.5,1.4-3.8,1.8c-0.6,0.2-0.4,1.1,0.2,1c1.6-0.4,3-1.1,4.3-2
					C564.7,382.6,564.1,381.9,563.6,382.2z"/>
			</g>
			<g>
				<path class="st0" d="M496.5,307.3c-0.3,0-0.6-0.2-0.7-0.5c-2-6.8-2.6-21.8-2.7-25.1c-3.4-0.7-8.2-2.9-8.5-3
					c-0.4-0.2-0.5-0.6-0.4-1c0.2-0.4,0.6-0.5,1-0.4c0.1,0,5.5,2.5,8.7,2.9l0.6,0.1l0,0.6c0,0.2,0.5,18,2.7,25.3
					c0.1,0.4-0.1,0.8-0.5,0.9C496.7,307.3,496.6,307.3,496.5,307.3z"/>
			</g>
		</g>
	</g>
	<g id="Top_102_">
		<g id="Hand_2_120_">
			<g>
				<path class="st0" d="M501.3,203.5c-17.8-2-28.2,8.3-35.3,0s-14.4-32.9-27.9-31.9c-13.5,1,11,48.7,9.9,49
					c-1.1,0.3,39.6,7.7,51.2,2.7C510.9,218.2,501.3,203.5,501.3,203.5z"/>
				<path class="st1" d="M485.8,225.7c-15.9,0-37.4-3.8-38.3-4.5l-0.4-0.3l0.1-0.5c-0.2-0.8-1.3-3.4-2.5-6.2
					c-5.1-12-14.6-34.3-10.4-41.2c0.8-1.3,2.1-2.1,3.7-2.2c9.9-0.7,16.3,11.1,22,21.5c2.3,4.2,4.5,8.2,6.6,10.7
					c3.7,4.3,8.5,3.2,15.1,1.6c5.3-1.2,11.8-2.8,19.8-1.9l0.4,0l0.2,0.3c0.2,0.3,5.3,8.3,3.4,14.8c-0.8,2.7-2.8,4.8-5.8,6.1
					C496.5,225.2,491.5,225.7,485.8,225.7z M448.7,220.1c4.5,1.3,39.7,7,50.2,2.5c2.6-1.1,4.3-2.8,5-5.1c1.6-5.1-2.1-11.7-3-13.2
					c-7.5-0.8-13.8,0.7-18.9,1.9c-6.9,1.6-12.3,2.9-16.5-2.1c-2.2-2.6-4.4-6.6-6.7-10.9c-5.4-10-11.6-21.4-20.6-20.7
					c-1.2,0.1-2,0.6-2.5,1.5c-3.8,6.3,5.9,28.9,10.5,39.8C447.9,217.6,448.6,219.3,448.7,220.1z M447.8,219.8
					C447.8,219.8,447.8,219.9,447.8,219.8L447.8,219.8z"/>
			</g>
			<g>
				<g>
					<path class="st2" d="M501.3,203.5c-17.8-2-28.2,8.3-35.3,0c-2.4-2.8-4.8-7.4-7.5-12.3c-5.8,4.2-11.3,8.9-17.1,13
						c3.6,8.9,7,16.2,6.6,16.3c-1.1,0.3,39.6,7.7,51.2,2.7S501.3,203.5,501.3,203.5z"/>
				</g>
				<g>
					<path class="st2" d="M485.8,225.7c-15.9,0-37.4-3.8-38.3-4.5l-0.4-0.3l0.1-0.5c-0.2-0.8-1.3-3.4-2.5-6.2
						c-1.2-2.7-2.6-6.1-4.1-9.7l-0.2-0.5l0.5-0.3c2.9-2.1,5.8-4.4,8.6-6.6c2.7-2.2,5.6-4.4,8.5-6.5l0.7-0.5l1.2,2.3
						c2.3,4.2,4.5,8.2,6.6,10.7c3.7,4.3,8.5,3.2,15.1,1.6c5.3-1.2,11.8-2.8,19.8-1.9l0.4,0l0.2,0.3c0.2,0.3,5.3,8.3,3.4,14.8
						c-0.8,2.7-2.8,4.8-5.8,6.1C496.5,225.2,491.5,225.7,485.8,225.7z M448.7,220.1c4.5,1.3,39.7,7,50.2,2.5c2.6-1.1,4.3-2.8,5-5.1
						c1.6-5.1-2.1-11.7-3-13.2c-7.5-0.8-13.8,0.7-18.9,1.9c-6.9,1.6-12.3,2.9-16.5-2.1c-2.2-2.6-4.4-6.6-6.7-10.9l-0.4-0.8
						c-2.6,1.9-5.2,4-7.7,5.9c-2.7,2.1-5.4,4.3-8.2,6.3c1.4,3.4,2.7,6.6,3.8,9.1C447.9,217.6,448.6,219.3,448.7,220.1z M447.8,219.8
						C447.8,219.8,447.8,219.9,447.8,219.8L447.8,219.8z"/>
				</g>
			</g>
		</g>
		<g id="Pen_5_">
			<g>
				<path class="st1" d="M376,120.9l11.2,15.1c1.9,2.6,5.9-0.4,4-3l-11.2-15.1C378.1,115.3,374.1,118.3,376,120.9z"/>
			</g>
			<g>
				<path class="st0" d="M486.3,230.9l-67.1-90.5l-32-16.3c-3.7-1.9-8,1.3-7.3,5.4l6.3,35.3l67.1,90.5c4.3,5.8,12.4,7,18.1,2.7
					l12.1-9C489.4,244.8,490.6,236.7,486.3,230.9z"/>
				<path class="st1" d="M463.8,261.4c-0.7,0-1.4,0-2-0.2c-3.6-0.5-6.8-2.5-9-5.4l-67.2-90.6l-6.3-35.5c-0.4-2.2,0.5-4.4,2.3-5.7
					c1.8-1.3,4.1-1.5,6.1-0.5l32.1,16.3l67.2,90.6c4.5,6.1,3.2,14.7-2.9,19.2l-12.1,9C469.6,260.4,466.8,261.4,463.8,261.4z
					 M387,164.6l67,90.3c1.9,2.6,4.8,4.3,8,4.8c3.2,0.5,6.5-0.3,9.1-2.3l12.1-9c5.4-4,6.6-11.7,2.5-17.1l-67-90.3l-31.8-16.2
					c-1.5-0.8-3.2-0.6-4.5,0.4c-1.3,1-2,2.6-1.7,4.2L387,164.6z"/>
			</g>
			<g>
				<path class="st1" d="M442,182.6L419.9,199c-4.1,3-9.9,2.2-12.9-1.9l-18.8-25.4c-3-4.1-2.2-9.9,1.9-12.9l22.1-16.4
					c4.1-3,9.9-2.2,12.9,1.9l18.8,25.4C447,173.7,446.1,179.5,442,182.6z"/>
			</g>
			<g>
				<path class="st1" d="M483.6,249.1l-12.1,9c-5.8,4.3-13.9,3.1-18.1-2.7l-2.7-3.6l32.9-24.4l2.7,3.6
					C490.6,236.7,489.4,244.8,483.6,249.1z"/>
			</g>
		</g>
		<g id="Body_117_">
			<path class="st2" d="M501.3,199.1c-13.1-0.2-24.2,16.6-19.1,35c4,14.5-9,35-9,35s34.5,3.8,55-1.2
				C528.2,267.8,530.4,199.6,501.3,199.1z"/>
		</g>
		<g id="Drawing_7_">
			<path class="st1" d="M153.1,305.2c-5.8,0-11.1-2.7-15.1-7.6c-1.5,0.1-2.9,0-4.3-0.2c-10.2-1.4-20.1-10.4-17.7-31.4
				c3-25.6,17.6-37.2,31.8-48.4c4.1-3.2,8.1-6.4,11.7-9.8c-13.2-1.2-22-8.6-23.8-20.1c-1.9-12.3,5.4-24.8,16.9-29
				c8-2.9,16-1.3,20.9,4.1c6.5,7.3,6.5,19.6-0.1,33.1c-5.2,10.6-13.9,17.5-23.2,24.9c-13.5,10.7-27.5,21.7-30.3,45.7
				c-1.8,15.4,3.6,25.5,14.3,27c0.4,0,0.7,0.1,1.1,0.1c-0.8-1.5-1.6-3.1-2.2-4.8c-3.8-10.2-3.6-24.6,4.3-31c4.1-3.3,11.5-3.5,17-0.3
				c3.6,2.1,9.4,7.3,7.5,19.1c-1.7,10.9-10.1,18.1-19.1,20.4c2.6,2.5,6.2,4.5,10.8,4.3c16.6-0.5,48.2-17.2,60.2-49.1
				c-5.3,5.5-12.1,8.9-21.9,6.7c-14.5-3.2-25-15.3-26-30.1c-0.8-11.3,4.5-25.6,21.7-32.1c7.9-3,17.4-1.1,24.2,4.7
				c4.6,4,11.4,12.7,10.5,29.6c4.2-8.1,8.4-15.4,15.3-16.3c14.3-1.8,18.3,6.2,24.9,19.4c2.3,4.5,4.9,9.7,8.4,15.5
				c8.5,14.1,26.4,16.7,35.4,12.4c4.2-2,6.3-5.2,6.3-9.3c-0.5,0.2-1.1,0.4-1.5,0.5c-6.7,1.8-13.7-0.3-17.3-5.3
				c-2.6-3.6-2.9-7.8-0.9-11.3c1.8-3.2,5.2-5,8.9-4.7c3.2,0.3,9.3,2.5,13.5,14.2c0.1,0.2,0.2,0.4,0.2,0.7c8-5.7,13.4-18.6,14.9-36.1
				c0.5-5.7,0.9-11.2,1.3-16.5c2.6-36.2,4.5-62.3,24.2-72c9-4.4,20.6-4.5,21-4.5c1.1,0,2,0.9,2,2s-0.9,2-2,2
				c-0.1,0-11.1,0.1-19.3,4.1c-17.6,8.7-19.4,33.9-22,68.7c-0.4,5.3-0.8,10.8-1.3,16.6c-2.1,25.4-11.1,35.8-18,40
				c0.7,6.5-2.3,11.9-8.5,14.8c-11.8,5.6-31.7,0.8-40.6-14c-3.6-5.9-6.2-11.2-8.5-15.8c-6.4-12.8-9.4-18.7-20.9-17.2
				c-5.3,0.7-9.1,8.1-13.2,16.1c-1.3,2.5-2.6,5.1-4.1,7.7c-8.2,38-44.6,62.2-67.2,62.8C153.4,305.2,153.3,305.2,153.1,305.2z
				 M145.7,259.2c-2.4,0-4.5,0.6-5.9,1.7c-5.6,4.5-6.9,16.2-3.1,26.5c0.6,1.5,1.5,3.7,3,6c8.2-1.4,16.5-7.7,18-17.5
				c1.1-7-0.9-12.3-5.5-15C150.2,259.7,147.8,259.2,145.7,259.2z M195.5,199.2c-2.2,0-4.4,0.4-6.5,1.1
				c-15.2,5.7-19.8,18.2-19.1,28.1c0.8,10.8,8.1,23.2,22.9,26.5c12.1,2.7,18.9-4.6,24.3-14c4.6-22-2.9-32.4-7.8-36.5
				C205.3,201,200.3,199.2,195.5,199.2z M301.1,235.6c-1.9,0-3.6,1-4.6,2.7c-1.2,2.1-1,4.8,0.7,7c2.6,3.7,7.8,5.2,12.9,3.8
				c0.7-0.2,1.3-0.4,2-0.7c-0.1-0.4-0.3-0.9-0.4-1.3c-2.5-7-6.2-11.2-10.1-11.6C301.4,235.6,301.3,235.6,301.1,235.6z M160.4,161.2
				c-2.1,0-4.3,0.4-6.5,1.2c-11.2,4.1-15.7,15.8-14.4,24.7c1.5,10,9.7,16.2,21.8,16.8c0.5,0,1,0.2,1.3,0.6c2.8-3.1,5.3-6.5,7.1-10.3
				c5.8-11.9,6.1-22.7,0.7-28.7C167.9,162.7,164.4,161.2,160.4,161.2z"/>
		</g>
		<g id="Hand_112_">
			<g>
				<path class="st0" d="M438.8,202.9c0.3-1.9,0.4-4-0.5-5.8c-2.6-5.6-5.4-9.3-7.9-7.3c-1.8,1.5,2.1,6.7,2.1,6.7l-0.5,1
					c-1.8-0.5-4.2-0.5-4.8-1.5c-4.2-6.4-6.9-4.5-7.9-1.8c0,0-6.3-2.3-4.7,5.9c0,0-3.5,1-1.8,5.5c1.2,3.3,9.2,11.6,17.7,19.4
					c4.4-6.1,8.8-12.2,13.5-18.1C441.9,205.4,440.2,204.1,438.8,202.9z"/>
				<path class="st1" d="M430.6,226.1l-0.6-0.6c-7.7-7.1-16.5-16-17.9-19.7c-0.7-1.7-0.7-3.2-0.1-4.4c0.5-0.9,1.2-1.5,1.7-1.7
					c-0.4-2.7,0-4.6,1.2-5.7c1.2-1.1,3-0.9,3.9-0.7c0.6-1.3,1.6-2.2,2.8-2.3c1.9-0.2,3.9,1.3,6.1,4.6c0.3,0.4,1.5,0.6,2.5,0.8
					c0.4,0.1,0.9,0.2,1.3,0.3l0-0.1c-1.1-1.5-3.8-5.7-1.7-7.4c0.8-0.6,1.7-0.9,2.6-0.7c2,0.5,4.1,3.1,6.5,8.2
					c0.7,1.6,0.9,3.6,0.6,5.8c1.6,1.3,3.1,2.5,4.8,3.7l0.6,0.5l-0.5,0.6c-4.1,5.1-8.2,10.7-13.5,18.1L430.6,226.1z M417.5,194.6
					c-0.5,0-1.1,0.1-1.6,0.5c-0.9,0.7-1.1,2.4-0.6,4.9l0.1,0.7l-0.7,0.2c0,0-1,0.3-1.4,1.3c-0.4,0.8-0.4,1.9,0.1,3.2
					c1,2.7,7.8,10.1,16.8,18.5c4.8-6.8,8.7-12,12.5-16.8c-1.6-1.1-3.1-2.3-4.6-3.6l-0.3-0.3l0.1-0.4c0.4-2.2,0.2-4-0.4-5.4
					c-2.6-5.6-4.4-7.1-5.5-7.4c-0.5-0.1-0.9,0-1.3,0.4c-0.8,0.7,0.8,3.8,2.2,5.7l0.3,0.4l-1.1,1.9l-0.6-0.2
					c-0.5-0.2-1.2-0.3-1.8-0.4c-1.5-0.3-2.9-0.5-3.5-1.4c-2.4-3.6-4-4-4.7-4c-1.1,0.1-1.6,1.4-1.8,2l-0.3,0.7l-0.7-0.3
					C419,194.9,418.3,194.6,417.5,194.6z"/>
			</g>
			<g>
				<g>
					<path class="st2" d="M503.2,204.4c-4.2-2-9.2-1.1-12.2,2.5c-5.6,6.8-13.8,13.4-23.2,11.2c-11.4-2.6-20.5-8.7-26.9-13.7
						c-1.9,2.3-3.8,4.6-5.6,7c-2.8,3.7-6,8-8.8,11.7c2.8,6.7,6.8,12.6,11.2,16.4c24,20.6,48.8,7.6,60-2.1c5-4.3,8.4-12.7,10.9-20.8
						c1.5-4.8-0.8-10-5.3-12.2C503.3,204.5,503.3,204.5,503.2,204.4z"/>
				</g>
				<g>
					<path class="st2" d="M465.2,251.2c-8.7,0-18.3-2.8-27.9-11.1c-4.4-3.8-8.5-9.7-11.4-16.6l-0.2-0.4l1-1.3
						c2.6-3.5,5.5-7.4,8-10.7c1.2-1.6,2.5-3.2,3.7-4.7c0.6-0.8,1.3-1.6,1.9-2.3l0.5-0.6l0.6,0.5c8.9,7.1,17.6,11.5,26.6,13.6
						c9.2,2.1,17.3-4.8,22.5-11c3.2-3.8,8.6-4.9,13.1-2.7l0.2,0.1c4.9,2.4,7.3,8,5.7,13.1c-2.2,6.8-5.7,16.4-11.2,21.1
						C494.8,241,481.7,251.2,465.2,251.2z M427.4,223.3c2.8,6.6,6.6,12.1,10.8,15.7c27,23.1,53.9,2.3,59.1-2.1
						c5.2-4.5,8.6-13.8,10.7-20.4c1.4-4.4-0.7-9.2-4.9-11.3l-0.2-0.1c-3.9-1.9-8.6-1-11.3,2.3c-7.8,9.3-16.1,13.3-23.9,11.5
						c-9-2.1-17.7-6.5-26.6-13.4c-0.5,0.6-1,1.2-1.4,1.8c-1.2,1.5-2.5,3.1-3.7,4.6c-2.5,3.4-5.4,7.3-8,10.7L427.4,223.3z"/>
				</g>
			</g>
			<g>
				<path class="st1" d="M425.9,203.1c-2.9-2-4.8-4.6-5.9-7.9c-0.2-0.6-1.1-0.2-0.9,0.4c1.1,3.4,3.3,6.3,6.2,8.3
					C425.8,204.2,426.4,203.4,425.9,203.1z"/>
			</g>
			<g>
				<path class="st1" d="M420.4,207.2c-2.1-1.9-3.8-4.2-4.8-6.9c-0.2-0.6-1.2-0.3-0.9,0.3c1.1,2.8,2.8,5.3,5.1,7.3
					C420.2,208.3,420.9,207.7,420.4,207.2z"/>
			</g>
			<g>
				<path class="st1" d="M485,245.7c-0.3,0-0.5-0.1-0.7-0.4c-0.2-0.4-0.1-0.8,0.3-1c10.6-5.8,21.7-23.1,21.9-23.3
					c0.2-0.3,0.7-0.5,1-0.2c0.3,0.2,0.5,0.7,0.2,1c-0.5,0.7-11.5,17.9-22.4,23.8C485.2,245.6,485.1,245.7,485,245.7z"/>
			</g>
			<g>
				<path class="st1" d="M479.1,217.5c-0.2,0-0.5-0.1-0.6-0.3c-0.2-0.3-0.1-0.8,0.2-1c7.3-5,11.8-9.7,11.8-9.8
					c0.3-0.3,0.8-0.3,1.1,0c0.3,0.3,0.3,0.8,0,1.1c0,0-4.6,4.8-12,10C479.4,217.5,479.2,217.5,479.1,217.5z"/>
			</g>
		</g>
		<g id="Lines_20_">
			<g>
				<path class="st2" d="M377.1,154.3c-0.2,0-0.5-0.1-0.6-0.3c-7-10.1-4.6-25.2-4.5-25.8c0.1-0.4,0.5-0.7,0.9-0.6
					c0.4,0.1,0.7,0.5,0.6,0.9c0,0.2-2.5,15.1,4.2,24.7c0.2,0.3,0.2,0.8-0.2,1C377.4,154.3,377.2,154.3,377.1,154.3z"/>
			</g>
			<g>
				<path class="st2" d="M368,152c-0.2,0-0.5-0.1-0.6-0.3c-3.2-4.8-4-12.3-2.1-19.1c0.1-0.4,0.5-0.6,0.9-0.5
					c0.4,0.1,0.6,0.5,0.5,0.9c-1.8,6.4-1.1,13.4,1.9,17.9c0.2,0.3,0.1,0.8-0.2,1C368.3,151.9,368.2,152,368,152z"/>
			</g>
			<g>
				<path class="st2" d="M390.5,117.6c-0.3,0-0.6-0.2-0.7-0.5c-2.1-4.8-6.2-6.6-12.6-5.6c-0.4,0.1-0.8-0.2-0.9-0.6
					c-0.1-0.4,0.2-0.8,0.6-0.9c7.1-1.1,11.9,1,14.2,6.4c0.2,0.4,0,0.8-0.4,1C390.7,117.6,390.6,117.6,390.5,117.6z"/>
			</g>
		</g>
		<g id="Head_125_">
			<g>
				<path class="st0" d="M512.7,168.6C512.7,168.6,512.7,168.6,512.7,168.6c-0.3-0.2-0.5-0.3-0.8-0.5c-0.3-0.2-0.5-0.3-0.8-0.4
					c-3.1-1.5-6.6-1.3-9.8,0c-0.5,0.2-1,0.5-1.5,0.7c-2.7,1.6-4.9,4.1-6.8,6.6c-4.9,6.7-4.1,15.1,5.4,18.7c2.1,0.8,4.3,1.1,6.5,0.8
					c2,2.4,4.8,2.8,7.3,1.7c2.9-1.2,4.8-4.9,2.9-7.8c0.5-0.6,0.9-1.3,1.3-2.1c0,0,0-0.1,0-0.1C519.7,179.9,517.9,172.3,512.7,168.6z
					"/>
				<path class="st1" d="M509.7,197.7c-1.9,0-3.6-0.8-5-2.3c-2.2,0.2-4.5-0.1-6.5-0.9c-4.4-1.7-7.3-4.5-8.4-8.1
					c-1.1-3.7-0.1-7.9,2.7-11.7c1.7-2.3,4-5.1,7-6.8c0.5-0.3,1-0.6,1.6-0.8c3.6-1.5,7.3-1.5,10.4,0c0.3,0.1,0.5,0.3,0.8,0.4
					c0.3,0.2,0.6,0.3,0.8,0.5l0.1,0.1c5.6,3.9,7.3,11.9,4,18.7c-0.3,0.7-0.7,1.3-1.1,1.9c0.7,1.2,0.8,2.7,0.4,4.1
					c-0.6,1.9-2.1,3.5-3.9,4.3C511.6,197.5,510.6,197.7,509.7,197.7z M505.3,193.8l0.3,0.3c1.7,2,4.1,2.5,6.5,1.5
					c1.4-0.6,2.6-1.9,3-3.3c0.2-0.8,0.4-2.1-0.5-3.3l-0.3-0.4l0.3-0.4c0.5-0.7,0.9-1.3,1.2-2l0-0.1c3-6.2,1.5-13.4-3.5-16.9
					l-0.1-0.1c-0.2-0.1-0.4-0.3-0.6-0.4c-0.3-0.1-0.5-0.3-0.7-0.4c-2.7-1.3-5.9-1.3-9.1,0c-0.5,0.2-1,0.4-1.4,0.7
					c-2.8,1.6-5,4.3-6.5,6.4c-2.5,3.4-3.4,7.2-2.5,10.4c0.9,3.1,3.5,5.6,7.5,7.2c1.9,0.7,4.1,1,6.2,0.8L505.3,193.8z"/>
			</g>
			<g>
				
					<ellipse transform="matrix(5.597725e-02 -0.9984 0.9984 5.597725e-02 294.8682 671.1108)" class="st1" cx="502.3" cy="179.6" rx="1" ry="1"/>
			</g>
			<g>
				<path class="st1" d="M493.9,180.3c1.2-1.9,2.7-3.5,4.4-5c0.5-0.4,1.2,0.3,0.7,0.7c-1.7,1.4-3.1,3-4.3,4.8
					C494.4,181.4,493.6,180.8,493.9,180.3z"/>
			</g>
			<g>
				<path class="st1" d="M507.4,189.5c2.2-0.9,4.7-0.3,6.1,1.6c0.4,0.5-0.4,1.2-0.7,0.7c-1.1-1.5-3.1-2.1-4.9-1.4
					C507.3,190.7,506.8,189.8,507.4,189.5z"/>
			</g>
			<g>
				<path class="st1" d="M515.3,188.7c0,0-1-0.1-1.1-0.1c0,0-2.5-2.7-3.5-3c-2.4-4.2-2.5-5-3-8.9c-0.8-1.9-5.9-4.3-8-8.3
					c0-1.3,1-1.6,1.5-1.8c3.2-1.3,6.7-0.4,9.8,1.1c0.3,0.1,0.5,0.3,0.8,0.4c0.3,0.2,0.5,0.3,0.7,0.5c0,0,0,0,0,0
					C518.3,172.4,521.9,181.1,515.3,188.7z"/>
			</g>
			<g>
				<path class="st1" d="M521.8,168c-6.7-0.3-11.7,5.1-12.1,11.6c-0.1,1.3,0.3,2.3,1,3.1c1.1,2.4,3.5,4.2,6.3,5.1c0,0,0,0.1,0,0.1
					c0.3,1.3,1.3,2.6,2.5,3.3c2.3,1.3,5.3,0.8,7.1-1.1c1-1.1,1.6-2.4,1.6-3.8c2-1.4,3.5-3.4,3.9-6.1
					C533.2,173.7,528,168.3,521.8,168z"/>
			</g>
		</g>
		<g id="Objects_80_">
			<g>
				<path class="st0" d="M356.6,270.4l52.8-35.7c0,0,21,29-6.8,48.1C381.9,297.1,356.6,270.4,356.6,270.4z"/>
				<path class="st1" d="M389.3,287.8c-17,0-33.1-16.6-33.3-16.8l-0.6-0.6l54.2-36.6l0.4,0.6c0.4,0.6,9.8,13.8,7.3,28.5
					c-1.4,8.1-6.2,15.1-14.3,20.7C398.6,286.6,393.9,287.8,389.3,287.8z M357.8,270.5c4,3.9,26.3,24.2,44.4,11.7
					c7.7-5.3,12.3-12,13.7-19.7c2.1-12.4-4.8-24.1-6.6-26.8L357.8,270.5z"/>
			</g>
			<g>
				<path class="st0" d="M272.8,270.7l12.6,41.7c0,0-18.4,7.8-25.4-14.2C253.8,278.8,272.8,270.7,272.8,270.7z"/>
			</g>
			<g>
				<g>
					<polygon class="st2" points="307.9,189.2 353.2,175.2 345.5,221.3 					"/>
				</g>
				<g>
					<path class="st2" d="M346,222.8l-39.6-33.9l47.8-14.8L346,222.8z M309.4,189.5l35.5,30.4l7.3-43.6L309.4,189.5z"/>
				</g>
			</g>
			<g>
				
					<rect x="249.9" y="126.9" transform="matrix(0.8899 -0.4561 0.4561 0.8899 -33.8374 133.6135)" class="st0" width="20" height="20"/>
			</g>
			<g>
				<polygon class="st0" points="253.6,163.4 266.2,157.5 266.2,172.3 				"/>
			</g>
			<g>
				<circle class="st0" cx="368.9" cy="170.6" r="6.8"/>
				<path class="st1" d="M368.9,178.1c-4.1,0-7.5-3.4-7.5-7.5s3.4-7.5,7.5-7.5s7.5,3.4,7.5,7.5S373,178.1,368.9,178.1z M368.9,164.6
					c-3.3,0-6,2.7-6,6s2.7,6,6,6s6-2.7,6-6S372.2,164.6,368.9,164.6z"/>
			</g>
			<g>
				
					<rect x="297.1" y="306.3" transform="matrix(0.5 -0.866 0.866 0.5 -119.4141 420.645)" class="st0" width="14.9" height="14.9"/>
			</g>
			<g>
				<path class="st0" d="M255.6,342.6c-0.2,0-0.4-0.1-0.6-0.3c-0.3-0.3-0.2-0.8,0.1-1.1c13.4-10.8,23.9-6.3,30.6-2
					c7.2,4.6,13-2.2,13.3-2.5c0.3-0.3,0.7-0.4,1.1-0.1c0.3,0.3,0.4,0.7,0.1,1.1c-0.1,0.1-6.9,8.1-15.2,2.8c-6.4-4-16.3-8.2-28.9,2
					C255.9,342.6,255.7,342.6,255.6,342.6z"/>
			</g>
			<g>
				<path class="st0" d="M255.6,351.7c-0.2,0-0.4-0.1-0.6-0.3c-0.3-0.3-0.2-0.8,0.1-1.1c13.4-10.8,23.9-6.3,30.6-2
					c7.2,4.6,13-2.2,13.3-2.5c0.3-0.3,0.7-0.4,1.1-0.1c0.3,0.3,0.4,0.7,0.1,1.1c-0.1,0.1-6.9,8.1-15.2,2.8c-6.4-4-16.3-8.2-28.9,2
					C255.9,351.6,255.7,351.7,255.6,351.7z"/>
			</g>
			<g>
				<path class="st0" d="M268.3,267.1c-0.3,0-0.5-0.2-0.7-0.4l-6.5-13.2c-0.2-0.4,0-0.8,0.3-1c0.4-0.2,0.8,0,1,0.3L269,266
					c0.2,0.4,0,0.8-0.3,1C268.6,267.1,268.5,267.1,268.3,267.1z"/>
			</g>
			<g>
				<path class="st0" d="M258.6,263.8c-0.3,0-0.5-0.2-0.7-0.4c-0.2-0.4,0-0.8,0.3-1l13.1-6.6c0.4-0.2,0.8,0,1,0.3
					c0.2,0.4,0,0.8-0.3,1l-13.1,6.6C258.8,263.8,258.7,263.8,258.6,263.8z"/>
			</g>
			<g>
				<path class="st1" d="M421.3,120.5c-0.1,0-0.2,0-0.2,0l-17.9-5.7c-0.4-0.1-0.6-0.5-0.5-0.9c0.1-0.4,0.5-0.6,0.9-0.5l17.9,5.7
					c0.4,0.1,0.6,0.5,0.5,0.9C421.9,120.3,421.6,120.5,421.3,120.5z"/>
			</g>
			<g>
				<path class="st1" d="M409.6,126.6c-0.1,0-0.1,0-0.2,0c-0.4-0.1-0.6-0.5-0.5-0.9l5.5-17.9c0.1-0.4,0.5-0.6,0.9-0.5
					c0.4,0.1,0.6,0.5,0.5,0.9l-5.5,17.9C410.2,126.4,409.9,126.6,409.6,126.6z"/>
			</g>
			<g>
				<path class="st1" d="M377.5,287.1c0,5.2-4.2,9.4-9.4,9.4s-9.4-4.2-9.4-9.4s4.2-9.4,9.4-9.4S377.5,280.7,377.5,287.1z"/>
			</g>
			<g>
				<polygon class="st1" points="221,369.2 207.9,376.8 165.8,376.8 150.5,350.3 195.2,324.4 				"/>
			</g>
			<g>
				<polygon class="st0" points="190.6,350.8 220,312.1 240.6,354.7 				"/>
			</g>
			<g>
				<path class="st1" d="M255.3,368.9c-0.1,0-0.1,0-0.2,0l-10.5-3.3c-0.4-0.1-0.6-0.5-0.5-0.9s0.5-0.6,0.9-0.5l10.5,3.3
					c0.4,0.1,0.6,0.5,0.5,0.9C256,368.7,255.7,368.9,255.3,368.9z"/>
			</g>
			<g>
				<path class="st1" d="M237.4,317.8c-0.1,0-0.2,0-0.2,0c-0.4-0.1-0.6-0.6-0.5-0.9l1.7-5c0.1-0.4,0.6-0.6,0.9-0.5
					c0.4,0.1,0.6,0.6,0.5,0.9l-1.7,5C238,317.6,237.7,317.8,237.4,317.8z"/>
			</g>
			<g>
				<path class="st1" d="M167.9,329.3c-0.3,0-0.5-0.1-0.7-0.4l-5.5-10c-0.2-0.4-0.1-0.8,0.3-1c0.4-0.2,0.8-0.1,1,0.3l5.5,10
					c0.2,0.4,0.1,0.8-0.3,1C168.1,329.3,168,329.3,167.9,329.3z"/>
			</g>
			<g>
				<path class="st1" d="M340.6,306.3c-0.1,0-0.3,0-0.4-0.1c-0.3-0.2-0.4-0.7-0.2-1l8.7-12.5c0.2-0.3,0.7-0.4,1-0.2s0.4,0.7,0.2,1
					l-8.7,12.5C341.1,306.2,340.8,306.3,340.6,306.3z"/>
			</g>
			<g>
				<path class="st1" d="M378.1,306.8C378,306.8,378,306.8,378.1,306.8l-7.5-0.9c-0.4,0-0.7-0.4-0.7-0.8c0-0.4,0.4-0.7,0.8-0.7
					l7.4,0.9c0.4,0,0.7,0.4,0.7,0.8C378.8,306.5,378.4,306.8,378.1,306.8z"/>
			</g>
			<g>
				<path class="st0" d="M304.6,181.8c-0.4,0-0.8-0.3-0.8-0.8v-5.9c0-0.4,0.3-0.8,0.8-0.8s0.8,0.3,0.8,0.8v5.9
					C305.3,181.5,305,181.8,304.6,181.8z"/>
			</g>
			<g>
				<path class="st0" d="M223.1,140.9c-0.2,0-0.3-0.1-0.5-0.2l-7.5-6.4c-0.3-0.3-0.4-0.7-0.1-1.1c0.3-0.3,0.7-0.3,1.1-0.1l7.5,6.4
					c0.3,0.3,0.4,0.7,0.1,1.1C223.5,140.8,223.3,140.9,223.1,140.9z"/>
			</g>
		</g>
	</g>
	<g id="Background_87_">
		<g id="Bushes_11_">
			<g>
				<path class="st0" d="M61.2,407.6h88.6c0,0-6.5-88.3-44.8-77.4c-28.5,8.1-10.5,52-10.5,52s-20.5-14-35.3-2.9
					C48.6,387.2,61.2,407.6,61.2,407.6z"/>
				<path class="st1" d="M150.7,408.3H60.8l-0.2-0.4c-0.5-0.9-12.9-21-1.7-29.4c12.4-9.2,28.7-1.4,34.2,1.8
					c-2.3-6.4-8.5-26.4-2-39.8c2.7-5.6,7.4-9.4,13.8-11.2c6.8-1.9,13.1-0.9,18.7,3c22.5,15.7,26.9,72.7,27.1,75.1L150.7,408.3z
					 M61.7,406.8h87.4c-0.6-7.1-5.9-58.9-26.4-73.2c-5.2-3.6-11.1-4.6-17.4-2.8c-6,1.7-10.3,5.2-12.8,10.4
					c-7.4,15.2,2.7,40.3,2.8,40.6l0.9,2.3l-2.1-1.4c-0.2-0.1-20.2-13.5-34.4-3C50.4,386.8,60.1,404.1,61.7,406.8z"/>
			</g>
			<g>
				<path class="st0" d="M320.8,407.6h39.8c0,0,22.7-44-1.6-48.5C326.9,353.2,320.8,407.6,320.8,407.6z"/>
				<path class="st1" d="M361,408.3h-41.1l0.1-0.8c0.1-1.3,3.8-32.7,20.3-44.9c5.5-4.1,11.9-5.5,18.9-4.2c4.7,0.9,8.1,3.3,10,7.1
					c6.7,13.7-7.3,41.3-7.9,42.4L361,408.3z M321.6,406.8h38.5c1.7-3.5,13.7-28.5,7.7-40.7c-1.7-3.4-4.7-5.5-8.9-6.3
					c-6.6-1.2-12.5,0.1-17.7,3.9C326.7,374.5,322.3,401.7,321.6,406.8z"/>
			</g>
			<g>
				<path class="st1" d="M126.1,408.3c-0.3,0-0.6-0.2-0.7-0.6c-3.2-13.5-10.1-38.2-20.9-52.6c-0.2-0.3-0.2-0.8,0.2-1
					c0.3-0.2,0.8-0.2,1,0.2c10.9,14.6,17.9,39.6,21.1,53.1c0.1,0.4-0.2,0.8-0.6,0.9C126.2,408.3,126.1,408.3,126.1,408.3z"/>
			</g>
			<g>
				<path class="st1" d="M128.6,379.9c-0.4,0-0.8-0.3-0.8-0.8v-12.6c0-0.4,0.3-0.8,0.8-0.8s0.8,0.3,0.8,0.8v12.6
					C129.3,379.6,129,379.9,128.6,379.9z"/>
			</g>
			<g>
				<path class="st1" d="M83.7,408.3c-0.2,0-0.5-0.1-0.6-0.3c-4.6-6.9-8.1-12.7-8.2-12.8c-0.2-0.4-0.1-0.8,0.3-1
					c0.4-0.2,0.8-0.1,1,0.3c0,0.1,3.5,5.9,8.1,12.7c0.2,0.3,0.1,0.8-0.2,1C84,408.3,83.9,408.3,83.7,408.3z"/>
			</g>
			<g>
				<path class="st1" d="M339.3,408.3c-0.1,0-0.1,0-0.2,0c-0.4-0.1-0.6-0.5-0.5-0.9c2.6-10.1,7.2-24.2,14.1-34.2
					c0.2-0.3,0.7-0.4,1-0.2c0.3,0.2,0.4,0.7,0.2,1c-6.8,9.8-11.3,23.8-13.8,33.8C339.9,408.1,339.6,408.3,339.3,408.3z"/>
			</g>
			<g>
				<path class="st1" d="M349.2,397.6c-0.2,0-0.4-0.1-0.6-0.3c-0.3-0.3-0.2-0.8,0.1-1.1l11.5-9.7c0.3-0.3,0.8-0.2,1.1,0.1
					c0.3,0.3,0.2,0.8-0.1,1.1l-11.5,9.7C349.5,397.5,349.3,397.6,349.2,397.6z"/>
			</g>
		</g>
	</g>
</g>
</svg>
