<?xml version="1.0" encoding="utf-8"?>
<!-- Generator: Adobe Illustrator 21.0.2, SVG Export Plug-In . SVG Version: 6.00 Build 0)  -->
<svg version="1.1" id="Слой_1" xmlns="http://www.w3.org/2000/svg" xmlns:xlink="http://www.w3.org/1999/xlink" x="0px" y="0px"
	 viewBox="0 0 459 363" style="enable-background:new 0 0 459 363;" xml:space="preserve">
<style type="text/css">
	.st0{fill:#030047;}
	.st1{fill:#FFCC3E;}
	.st2{fill:#FFFFFF;}
	.st3{fill:#FF3E6C;}
</style>
<g id="_x35_">
	<g id="Bottom_28_">
		<g id="Body_2_7_">
			<polygon class="st0" points="187,215.2 138,218.9 165.3,173.9 202.1,198.2 			"/>
		</g>
		<g>
			<path class="st1" d="M194.5,145.9c-8.3,2.6-26,11.9-31,9.8c-3.1-1.4-3.7-4.9-4.9-8.9c-4.8,4.5-11.3,7.1-18,9
				c2,12.8,20.4,25.4,20.4,25.4S202.8,143.3,194.5,145.9z"/>
			<path class="st1" d="M161.1,182.1l-0.5-0.3c-0.8-0.5-18.6-12.9-20.7-25.9l-0.1-0.7l0.6-0.2c7.9-2.2,13.6-5,17.7-8.8l0.9-0.8
				l0.3,1.2c0.2,0.5,0.3,1.1,0.5,1.6c0.9,3.2,1.6,5.8,4,6.8c3.1,1.4,12.8-2.7,20.6-5.9c3.7-1.6,7.3-3.1,9.9-3.9l0,0
				c1-0.3,1.6-0.2,1.9,0.4c0.5,0.8,1.2,2.1-16.8,19.5c-8.7,8.4-17.7,16.6-17.8,16.7L161.1,182.1z M141.5,156.3
				c2.2,11,16.6,21.9,19.5,23.9c15.5-14,31.8-29.9,33.7-33.6c-2.5,0.8-6,2.3-9.7,3.8c-8.8,3.7-18,7.5-21.7,5.9
				c-3-1.3-3.9-4.5-4.9-7.8c0-0.1-0.1-0.3-0.1-0.4C154.2,151.6,148.8,154.2,141.5,156.3z"/>
		</g>
		<g id="Swing_part_7_">
			<path class="st0" d="M96.7,216.7c-0.2,0-0.3,0-0.5-0.2c-0.3-0.3-0.4-0.7-0.1-1.1L201.5,76c0.2-0.3,0.7-0.4,1.1-0.1
				c0.3,0.3,0.4,0.7,0.1,1.1L97.3,216.4C97.2,216.6,97,216.7,96.7,216.7z"/>
		</g>
		<g id="Leg_2_27_">
			<g>
				<path class="st2" d="M85.1,132.1l-4.5,25l-24.3-9.6l10-41.3c5.2,0.6,7.8,5.4,9.4,10.7c0.1,0.3,0.2,0.6,0.3,1
					c0.3,0.9,0.5,1.8,0.7,2.8c0.1,0.3,0.2,0.7,0.2,1c0.4,1.8,0.8,3.5,1.1,5C79.9,134.1,85.1,132.1,85.1,132.1z"/>
				<path class="st0" d="M81.2,158.1L55.5,148l10.3-42.5l0.7,0.1c6.2,0.7,8.7,6.7,10,11.2c0.1,0.3,0.2,0.7,0.3,1
					c0.3,1,0.5,1.9,0.7,2.8c0.1,0.3,0.2,0.7,0.2,1c0.2,0.7,0.3,1.5,0.5,2.2c0.2,1,0.4,1.9,0.6,2.8c0.6,2.4,1.5,3.9,2.9,4.6
					c1.6,0.8,3.1,0.3,3.1,0.3l1.2-0.5L81.2,158.1z M57.2,147.1l22.8,9l4.1-23c-0.8,0.1-2,0-3.2-0.6c-1.7-0.9-3-2.8-3.6-5.6
					c-0.2-0.9-0.4-1.8-0.6-2.8c-0.2-0.7-0.3-1.4-0.5-2.2c-0.1-0.3-0.1-0.7-0.2-1c-0.2-0.9-0.4-1.8-0.7-2.8c-0.1-0.3-0.2-0.6-0.3-1
					c-1.9-6.1-4.5-9.3-8.1-10L57.2,147.1z"/>
			</g>
			<g>
				<path class="st0" d="M164.7,170.2c-29.8-9.8-83.5-41.6-83.5-41.6s-8.5,31.9-11,39.9c0,0,32.5,13.5,45.5,21c0,0,60.5-4,59.3-12
					S164.7,170.2,164.7,170.2z"/>
			</g>
			<g>
				<path class="st0" d="M77,121.7l-4.4,2.2c-0.6,0.3-1.1-0.6-0.5-0.9l4.6-2.3C76.8,121,76.9,121.4,77,121.7z"/>
			</g>
			<g>
				<path class="st0" d="M76.1,117.9l-4.6,2.3c-0.6,0.3-1.1-0.6-0.5-0.9l4.8-2.4C75.9,117.3,76,117.6,76.1,117.9z"/>
			</g>
		</g>
		<g id="Sit_7_">
			<g>
				<path class="st2" d="M188.8,223.9h-85.2c-1.3,0-2.6-0.7-3.3-1.8L89.1,204c-1.6-2.6,0.2-5.9,3.3-5.9h85.2c1.3,0,2.6,0.7,3.3,1.8
					l11.3,18.1C193.7,220.6,191.8,223.9,188.8,223.9z"/>
				<path class="st0" d="M188.8,224.7h-85.2c-1.6,0-3-0.8-3.9-2.2l-11.3-18.1c-0.9-1.4-0.9-3.2-0.1-4.6c0.8-1.5,2.3-2.4,4-2.4h85.2
					c1.6,0,3,0.8,3.9,2.2l11.3,18.1c0.9,1.4,0.9,3.2,0.1,4.6S190.5,224.7,188.8,224.7z M92.4,198.9c-1.1,0-2.1,0.6-2.7,1.6
					s-0.5,2.2,0.1,3.1l11.3,18.1c0.6,0.9,1.5,1.5,2.6,1.5h85.2c1.1,0,2.1-0.6,2.7-1.6c0.6-1,0.5-2.2-0.1-3.1l-11.3-18.1
					c-0.6-0.9-1.5-1.5-2.6-1.5H92.4z"/>
			</g>
			<g>
				<path class="st0" d="M182.3,216.4H139c-0.4,0-0.8-0.3-0.8-0.8s0.3-0.8,0.8-0.8h43.3c0.4,0,0.8,0.3,0.8,0.8
					S182.8,216.4,182.3,216.4z"/>
			</g>
			<g>
				<path class="st0" d="M178.8,207.3h-29.3c-0.4,0-0.8-0.3-0.8-0.8s0.3-0.8,0.8-0.8h29.3c0.4,0,0.8,0.3,0.8,0.8
					S179.2,207.3,178.8,207.3z"/>
			</g>
		</g>
		<g id="Leg_30_">
			<g>
				<path class="st2" d="M116.9,264.2l21.1-6.3l6.8,23.2l-40.6,12.4c-2.1-4.8,0.7-9.4,4.4-13.5c0.2-0.2,0.5-0.5,0.7-0.7
					c0.7-0.7,1.3-1.4,2-2c0.2-0.2,0.5-0.5,0.7-0.7c1.3-1.2,2.6-2.4,3.7-3.5C121.3,267.7,116.9,264.2,116.9,264.2z"/>
				<path class="st0" d="M103.8,294.4l-0.3-0.6c-2.5-5.7,1.4-10.9,4.5-14.3c0.2-0.3,0.5-0.5,0.7-0.8c0.7-0.7,1.4-1.4,2.1-2
					c0.2-0.2,0.5-0.5,0.8-0.7c0.5-0.5,1.1-1,1.6-1.5c0.7-0.7,1.4-1.3,2.1-2c1.7-1.7,2.6-3.3,2.5-4.8c-0.1-1.8-1.3-2.8-1.4-2.8
					l-1.1-0.9l23.1-6.9l7.3,24.7L103.8,294.4z M118.3,264.5c0.5,0.7,1,1.7,1,3c0.1,2-0.9,4-3,6c-0.7,0.6-1.4,1.3-2.1,2
					c-0.5,0.5-1.1,1-1.6,1.5c-0.3,0.2-0.5,0.5-0.7,0.7c-0.7,0.6-1.3,1.3-2,2c-0.2,0.2-0.5,0.5-0.7,0.7c-4.3,4.7-5.8,8.6-4.5,12.1
					l39.2-12l-6.4-21.8L118.3,264.5z"/>
			</g>
			<g>
				<path class="st0" d="M112.1,276.4l4.1,2.6c0.5,0.4,0.1,1.2-0.5,0.9l-4.4-2.8C111.6,276.9,111.9,276.7,112.1,276.4z"/>
			</g>
			<g>
				<path class="st0" d="M109.3,279.2l4.3,2.8c0.5,0.3,0.1,1.2-0.5,0.9l-4.5-2.9C108.9,279.7,109.1,279.4,109.3,279.2z"/>
			</g>
			<g>
				<path class="st0" d="M166,178.3c-4.8-1.9-10-2.9-15-4.3c-30.3,1.3-57.5,5.7-56.3,32.9c1.5,32.3,14.9,66.1,14.9,66.1l35.6-9.3
					c0,0-9.4-40.9-11.6-50.9l25.6-17.1L166,178.3z"/>
			</g>
			<g>
				<path class="st2" d="M132.8,212.4c-0.3,0-0.6-0.2-0.7-0.6l-1.5-6.2c-0.1-0.4,0.1-0.8,0.5-0.9c0.4-0.1,0.8,0.1,0.9,0.5l1.5,6.2
					c0.1,0.4-0.1,0.8-0.5,0.9C133,212.4,132.9,212.4,132.8,212.4z"/>
			</g>
			<g>
				<path class="st2" d="M107.4,183.2c-0.3,0-0.6-0.2-0.7-0.5c-0.2-0.4,0-0.8,0.4-1c11.5-4.6,31.6-7,53.2,0c0.4,0.1,0.6,0.5,0.5,0.9
					c-0.1,0.4-0.5,0.6-0.9,0.5c-21.2-6.8-40.9-4.5-52.2,0C107.6,183.2,107.5,183.2,107.4,183.2z"/>
			</g>
		</g>
		<g id="Palm_16_">
			<g>
				<path class="st2" d="M156.1,129c-3.8,0-1.1,7.4-1.1,7.4s-0.3,0.1-0.8,0.3c-1.1-2.4-3.2-5.5-6.1-5.6c-2,0-2.3,2.8-2.3,2.8
					s-1.9,0.5-2.5,1.1c-1.5,1.5-1.7,3.9-1.7,3.9c-2.8,1-3.5,5.9-0.9,16.1c0.2,0.9,0.6,1.8,0.9,2.8c6.4-2,12.4-4.7,17.9-8.4
					c-0.3-1-0.6-2-0.9-3.1C163.4,139,158.8,129,156.1,129z"/>
				<path class="st0" d="M141.1,158.8l-0.3-0.6c-0.4-1-0.7-1.9-1-2.9c-2.5-9.7-2.2-15.2,0.9-16.8c0.1-0.8,0.6-2.6,1.8-3.9
					c0.5-0.5,1.7-0.9,2.4-1.1c0.3-1.3,1.1-3,3-3c0,0,0,0,0,0c2.4,0,4.2,1.7,5.5,3.7c-0.3-1.6-0.5-3.7,0.4-4.9c0.3-0.5,1-1.1,2.2-1.1
					c1.2,0,2.4,1.1,3.5,3.1c2.2,4,2.9,10.2-0.2,15.2c0.2,0.6,0.3,1.1,0.5,1.6l0.5,1.7l-0.5,0.3c-5.5,3.6-11.6,6.5-18.1,8.5
					L141.1,158.8z M147.9,132c-1.3,0-1.6,2.1-1.6,2.2l-0.1,0.5l-0.5,0.1c-0.8,0.2-1.9,0.6-2.1,0.9c-1.3,1.3-1.5,3.4-1.5,3.4l0,0.5
					l-0.5,0.2c-2.6,0.9-2.7,6.3-0.4,15.2c0.2,0.6,0.4,1.3,0.6,2c6-1.9,11.6-4.5,16.6-7.8l-0.2-0.6c-0.2-0.6-0.4-1.3-0.6-1.9
					l-0.1-0.3l0.2-0.3c3-4.5,2.2-10.4,0.3-13.9c-0.9-1.7-1.8-2.3-2.2-2.3c-0.6,0-0.8,0.2-0.9,0.4c-0.8,1.1-0.1,4.3,0.5,6l0.3,0.7
					l-0.7,0.3c0,0-0.3,0.1-0.7,0.3l-0.7,0.3l-0.3-0.7C152.4,134.8,150.5,132.1,147.9,132C148,132,148,132,147.9,132z"/>
			</g>
			<g>
				<path class="st0" d="M144.8,140.1c-0.5-0.4-1.2,0.3-0.7,0.7c1.6,1.5,3.2,3.3,3.9,5.4c0.3,0.9,0.9,2.6-0.9,2.9
					c-0.8,0.1-1.6-0.8-2.1-1.4c-0.6-0.8-1.1-1.6-1.8-2.2c-0.5-0.4-1.2,0.3-0.7,0.7c1.2,1.2,1.9,3,3.6,3.7c1.2,0.5,2.5,0.2,3-1
					C150.5,145.9,146.8,141.9,144.8,140.1z"/>
			</g>
			<g>
				<path class="st0" d="M153.3,136.8c-0.4-0.5-1.1,0.2-0.7,0.7c1.7,1.9,1.3,4.7-0.8,6.1c-0.4-2.6-2.8-5.4-4.2-7
					c-0.4-0.5-1.1,0.2-0.7,0.7c1.6,1.8,6,6.8,2.8,9c-0.5,0.4,0,1.2,0.5,0.9c1.1-0.7,1.5-1.6,1.6-2.6c0.1,0.1,0.3,0.1,0.4,0
					C155,142.8,155.4,139.3,153.3,136.8z"/>
			</g>
		</g>
		<g>
			<path class="st0" d="M140,159.3c-0.2,0-0.3,0-0.5-0.2c-0.3-0.3-0.4-0.7-0.1-1.1l6.5-8.6c0.2-0.3,0.7-0.4,1.1-0.1
				c0.3,0.3,0.4,0.7,0.1,1.1l-6.5,8.6C140.5,159.2,140.3,159.3,140,159.3z"/>
		</g>
		<g>
			<path class="st0" d="M163.8,167c-0.6,0-1.3,0-1.9-0.1c-0.4,0-0.7-0.4-0.7-0.8s0.4-0.7,0.8-0.7c10.7,1.2,19-9.2,23.4-14.9
				c0.3-0.3,0.7-0.4,1.1-0.1c0.3,0.3,0.4,0.7,0.1,1.1C182.2,157,174.3,167,163.8,167z"/>
		</g>
	</g>
	<g id="Background_26_">
		<g id="Objects_64_">
			<g>
				<circle class="st2" cx="292.1" cy="107.1" r="11"/>
				<path class="st0" d="M292.1,118.9c-6.5,0-11.7-5.3-11.7-11.7s5.3-11.7,11.7-11.7c6.5,0,11.7,5.3,11.7,11.7
					S298.6,118.9,292.1,118.9z M292.1,96.9c-5.6,0-10.2,4.6-10.2,10.2s4.6,10.2,10.2,10.2c5.6,0,10.2-4.6,10.2-10.2
					S297.8,96.9,292.1,96.9z"/>
			</g>
			<g>
				<rect x="291.4" y="93.2" class="st2" width="48" height="9.2"/>
				<path class="st0" d="M340.1,103.1h-49.5V92.4h49.5V103.1z M292.1,101.6h46.5v-7.7h-46.5V101.6z"/>
			</g>
			<g>
				<path class="st0" d="M178.6,284.1c-0.2,0-0.4-0.1-0.5-0.2l-10.3-10.3c-0.3-0.3-0.3-0.8,0-1.1s0.8-0.3,1.1,0l10.3,10.3
					c0.3,0.3,0.3,0.8,0,1.1C179,284,178.8,284.1,178.6,284.1z"/>
			</g>
			<g>
				<path class="st0" d="M168.4,284.1c-0.2,0-0.4-0.1-0.5-0.2c-0.3-0.3-0.3-0.8,0-1.1l10.3-10.3c0.3-0.3,0.8-0.3,1.1,0
					s0.3,0.8,0,1.1l-10.3,10.3C168.7,284,168.5,284.1,168.4,284.1z"/>
			</g>
			<g>
				<path class="st0" d="M178.6,261.9c-0.1,0-0.3,0-0.4-0.1c-0.3-0.2-0.4-0.7-0.2-1l5.4-8.3c0.2-0.3,0.7-0.4,1-0.2
					c0.3,0.2,0.4,0.7,0.2,1l-5.4,8.3C179.1,261.8,178.8,261.9,178.6,261.9z"/>
			</g>
			<g>
				<path class="st0" d="M184,266.2c-0.2,0-0.4-0.1-0.6-0.3c-0.3-0.3-0.2-0.8,0.1-1.1l5.5-4.3c0.3-0.3,0.8-0.2,1.1,0.1
					c0.3,0.3,0.2,0.8-0.1,1.1l-5.5,4.3C184.3,266.1,184.1,266.2,184,266.2z"/>
			</g>
			<g>
				<path class="st0" d="M107.4,134.7c-0.2,0-0.5-0.1-0.6-0.3l-3.9-5.4c-0.2-0.3-0.2-0.8,0.2-1c0.3-0.2,0.8-0.2,1,0.2l3.9,5.4
					c0.2,0.3,0.2,0.8-0.2,1C107.7,134.7,107.6,134.7,107.4,134.7z"/>
			</g>
			<g>
				<path class="st0" d="M107.4,115.2c-0.3,0-0.6-0.2-0.7-0.5c-0.1-0.4,0.1-0.8,0.5-1l9.6-3.4c0.4-0.1,0.8,0.1,1,0.5
					c0.1,0.4-0.1,0.8-0.5,1l-9.6,3.4C107.6,115.1,107.5,115.2,107.4,115.2z"/>
			</g>
		</g>
		<g id="Objects_76_">
			<g>
				<rect x="253.7" y="146.3" transform="matrix(0.866 0.5 -0.5 0.866 110.0619 -108.9436)" class="st2" width="9.3" height="9.3"/>
				<path class="st0" d="M260.3,158.3l-9.3-5.4l5.4-9.3l9.3,5.4L260.3,158.3z M253,152.3l6.7,3.9l3.9-6.7l-6.7-3.9L253,152.3z"/>
			</g>
			<g>
				<circle class="st2" cx="284.9" cy="203.8" r="14"/>
				<path class="st0" d="M284.9,218.6c-8.2,0-14.8-6.6-14.8-14.8s6.6-14.8,14.8-14.8s14.8,6.6,14.8,14.8S293.1,218.6,284.9,218.6z
					 M284.9,190.6c-7.3,0-13.3,6-13.3,13.3s6,13.3,13.3,13.3s13.3-6,13.3-13.3S292.3,190.6,284.9,190.6z"/>
			</g>
		</g>
		<g>
			<path class="st1" d="M338.2,247.6c0,12.6-10.2,22.8-22.8,22.8s-22.8-8.5-22.8-22.8c0-12.6,10.2-22.8,22.8-22.8
				S338.2,235,338.2,247.6z"/>
		</g>
	</g>
	<g id="Top_27_">
		<g id="Hand_82_">
			<g>
				<path class="st1" d="M292.1,169.9c-1.8,8.9-13,25.5-30.9,26.2c-19.1,0.8-31.6-7.3-40-15.8c-6.4,11.5-22.4,28.3-22.4,28.3
					c-8.4-12.1-41.7-42.3-41.7-42.3s17.8,1,26-11.8c7-10.8,22.2-12.7,33.7-6.1c1,0.5,1.8,1.1,2.6,1.7c16.8,9.3,31.8,20.8,38.5,17
					c7-3.9,18.6-11.9,24.6-17.7c0,0,0.1-0.1,0.1-0.1c0.1,0.7,0.5,1.4,0.8,2.3C284.9,157.9,288.4,165.5,292.1,169.9z"/>
				<path class="st1" d="M198.7,209.8l-0.5-0.8c-8.3-11.9-41.3-41.8-41.6-42.1l-1.6-1.4l2.1,0.1c0.2,0,17.4,0.8,25.3-11.4
					c6.9-10.7,22.2-13.5,34.7-6.4c0.9,0.5,1.8,1.1,2.6,1.7c4,2.2,7.8,4.5,11.5,6.8c11.5,6.9,21.5,12.9,26.2,10.2
					c7.2-4.1,18.6-12,24.4-17.6c0.1-0.1,0.1-0.1,0.2-0.2l1.1-0.8l0.1,1.4c0,0.3,0.2,0.6,0.3,1c0.1,0.3,0.3,0.7,0.4,1.2
					c1.6,6.5,5.1,13.8,8.5,17.9l0.2,0.3l-0.1,0.4c-1.7,8.7-13,26-31.6,26.8c-15.6,0.7-28.7-4.3-39.9-15.4
					c-6.7,11.4-21.9,27.5-22,27.6L198.7,209.8z M159,167.1c6.4,5.9,31.7,29.2,39.8,40.3c3-3.2,16.1-17.5,21.7-27.5l0.5-0.9l0.7,0.7
					c11,11.2,23.9,16.3,39.4,15.6c17.5-0.8,28.3-16.9,30.1-25.3c-3.5-4.3-7-11.7-8.6-18.2c-0.1-0.3-0.2-0.7-0.4-1c0,0,0-0.1-0.1-0.1
					c-6.1,5.7-16.9,13.1-23.9,17.1c-5.5,3.1-15.3-2.8-27.7-10.2c-3.7-2.2-7.6-4.5-11.5-6.8l-0.1-0.1c-0.8-0.6-1.6-1.2-2.5-1.7
					c-11.9-6.7-26.3-4.2-32.7,5.9C176.9,165.6,164,167,159,167.1z"/>
			</g>
			<g>
				<path class="st0" d="M299.6,146.1c-0.6-0.3-1.1,0.6-0.5,0.9c2,1.1,2.4,3.6,0.6,5.2c-0.5,0.4,0.2,1.1,0.7,0.7
					C302.6,150.9,302.2,147.5,299.6,146.1z"/>
			</g>
			<g>
				<path class="st3" d="M304,144.5c-0.4-0.5-1.1,0.2-0.7,0.7c1.7,2,1.7,4.7,0.1,6.8c-0.4,0.5,0.3,1.2,0.7,0.7
					C306.1,150.2,306.1,147,304,144.5z"/>
			</g>
			<g>
				<path class="st0" d="M218.3,179.3c-0.3,0-0.5-0.1-0.7-0.4l-2.1-3.8c-0.2-0.4-0.1-0.8,0.3-1c0.4-0.2,0.8-0.1,1,0.3l2.1,3.8
					c0.2,0.4,0.1,0.8-0.3,1C218.6,179.3,218.4,179.3,218.3,179.3z"/>
			</g>
		</g>
		<g id="Swing_7_">
			<g>
				<path class="st0" d="M297.2,77.2H181.3c-0.4,0-0.8-0.3-0.8-0.8s0.3-0.8,0.8-0.8h115.9c0.4,0,0.8,0.3,0.8,0.8
					S297.6,77.2,297.2,77.2z"/>
			</g>
			<g>
				<path class="st0" d="M186,209.4c-0.2,0-0.3,0-0.5-0.2c-0.3-0.3-0.4-0.7-0.1-1.1L285.3,76c0.2-0.3,0.7-0.4,1.1-0.1
					c0.3,0.3,0.4,0.7,0.1,1.1l-99.9,132.2C186.5,209.3,186.2,209.4,186,209.4z"/>
			</g>
		</g>
		<g id="Head_85_">
			<g>
				<path class="st0" d="M210.1,119.9c-2.9,1.1-6.4,2.7-9.6,1.7c-2.9-0.9-4.2-3.6-6.2-5.8c-3.1-3.5-7.4-5.6-12-6
					c-10.1-0.8-17.1,7.7-13,17.3c3.7,8.5,12.6,14,21.6,15c8.7,1,20.5-2.6,22.2-12.4c0.1-0.8,0-1.6-0.2-2.4
					C216.8,125,214.7,118.2,210.1,119.9z"/>
			</g>
			<g>
				<path class="st2" d="M218.7,115.7c-7-1.4-14,3.8-15.6,11.7c0,0,0,0.1,0,0.1c-0.7-0.1-1.4-0.1-2.1-0.1c-4.3,0.4-6.1,4.1-4.4,7.1
					c1.5,2.6,4.9,4.7,8.5,3.8c1.8,2.8,4.6,5,7.9,5.9c9.8,2.8,14-3.8,15.6-11.7C230.2,124.6,225.7,117.1,218.7,115.7z"/>
				<path class="st0" d="M217.3,145.5c-1.4,0-2.9-0.2-4.5-0.7c-3.2-0.9-6-3-8-5.8c-3.9,0.7-7.3-1.7-8.8-4.3c-0.9-1.6-1-3.5-0.2-5.1
					c0.9-1.8,2.8-2.9,5.2-3.1c0.5,0,1,0,1.6,0c1.9-8,9.1-13.1,16.3-11.7l0,0c3.6,0.7,6.7,3,8.7,6.3c2,3.3,2.6,7.3,1.8,11.3
					c-1.1,5.7-3.3,9.5-6.6,11.5C221.2,145.1,219.3,145.5,217.3,145.5z M205.5,137.4l0.3,0.4c1.8,2.7,4.4,4.7,7.4,5.6
					c3.5,1,6.4,0.8,8.8-0.6c2.9-1.7,4.8-5.3,5.9-10.5c0.7-3.6,0.1-7.3-1.6-10.3c-1.8-3-4.5-5-7.7-5.6l0,0
					c-6.6-1.3-13.2,3.7-14.7,11.1l-0.1,0.7l-0.7,0c-0.7-0.1-1.3-0.1-1.9-0.1c-1.8,0.2-3.3,1-4,2.3c-0.6,1.1-0.5,2.4,0.1,3.6
					c1.3,2.2,4.3,4.3,7.7,3.4L205.5,137.4z"/>
			</g>
			<g>
				<path class="st0" d="M226.9,121.6c7.8-2.3,0.6-10.3-8.2-5.9c-7-1.4-14,3.8-15.6,11.7c0,0.1,0,0.3-0.1,0.4c1.1,0,5.2,0.4,9.1-2.6
					C217.5,124.8,224.8,121.2,226.9,121.6z"/>
			</g>
			<g>
				<ellipse transform="matrix(0.559 -0.8292 0.8292 0.559 -11.8391 238.6903)" class="st0" cx="218.5" cy="130.5" rx="1" ry="1"/>
			</g>
			<g>
				<path class="st0" d="M224.8,136.1c0.1-2.2,0-4.5-0.5-6.6c-0.1-0.6-1.1-0.4-1,0.2c0.5,2.1,0.7,4.2,0.5,6.4
					C223.7,136.6,224.7,136.7,224.8,136.1z"/>
			</g>
			<g>
				<path class="st0" d="M205.4,133.1c-1.2-2.1-3.6-3.1-5.8-2.4c-0.6,0.2-0.4,1.2,0.2,1c1.8-0.5,3.8,0.2,4.8,1.9
					C204.8,134.1,205.7,133.6,205.4,133.1z"/>
			</g>
		</g>
		<g>
			<path class="st0" d="M163.8,167c-0.6,0-1.3,0-1.9-0.1c-0.4,0-0.7-0.4-0.7-0.8s0.4-0.7,0.8-0.7c10.7,1.2,19-9.2,23.4-14.9
				c0.3-0.3,0.7-0.4,1.1-0.1c0.3,0.3,0.4,0.7,0.1,1.1C182.2,157,174.3,167,163.8,167z"/>
		</g>
		<g id="Hand_105_">
			<g>
				<path class="st2" d="M309.1,140.2c0-2.5-11.9-4.1-20.6,3.2c-2.9,2.5-5.7,5.3-8.6,8.1c1.9,4.8,8.4,16.9,10.2,18.3
					c1.6-4,4.2-8,5.4-9.3c0.8-0.8,2.9-2.6,5.8-4.4c0.9,1.6,9.2-3.7,7.5-8.1c-0.5-1.3-1.8-3.9-2.3-4.6
					C308,142.9,309.1,142,309.1,140.2z"/>
				<path class="st0" d="M290.4,171.1l-0.8-0.6c-2-1.6-8.6-14-10.4-18.6l-0.2-0.5l1.6-1.6c2.4-2.4,4.9-4.8,7.4-6.9
					c7.5-6.3,17-6.1,20.2-4.6c1.4,0.6,1.6,1.4,1.6,2c0,1.7-0.8,2.9-2.4,3.6c0.6,1.1,1.5,2.9,1.9,4c1.4,3.6-2.5,7.4-5.5,8.8
					c-1.3,0.6-2.2,0.6-2.7,0.4c-2.8,1.8-4.6,3.4-5.2,4c-1,1.1-3.7,4.9-5.2,9L290.4,171.1z M280.7,151.8c1.9,4.6,6.9,13.8,9.1,16.7
					c1.6-3.6,3.9-7.1,5.1-8.4c0.9-1,3.1-2.8,5.9-4.5l0.7-0.4l0.3,0.6c0.5,0.1,2.7-0.8,4.5-2.7c0.9-1,2.4-2.9,1.7-4.7
					c-0.5-1.3-1.8-3.8-2.2-4.5l-0.5-0.8l0.9-0.3c1.5-0.5,2.2-1.2,2.2-2.5c0,0-0.1-0.3-0.8-0.6c-3.1-1.4-12-1.2-18.6,4.4
					c-2.5,2.1-4.8,4.4-7.3,6.8L280.7,151.8z"/>
			</g>
			<g>
				<path class="st0" d="M306,147.4c-1.5,1.1-3.6,2.2-5,3.6c0,0,0,0-0.1,0c-2.6-1-1.5-3.6,0.1-4.9c1.2-1,2.6-1.8,4.1-2.2
					c0.6-0.2,0.3-1.2-0.3-1c-2.3,0.7-5.2,2.2-6.2,4.5c-0.8,1.8,0.1,3.6,1.7,4.4c-1.2,1.7-1,2.4,0.2,3.8c0.4,0.5,1.1-0.2,0.7-0.7
					c-0.9-1.1-0.9-1.7,0.3-2.9c0.4-0.5,1-0.8,1.5-1.2c1.1-0.8,2.3-1.7,3.5-2.5C307,147.9,306.5,147,306,147.4z"/>
			</g>
			<g>
				<path class="st0" d="M312.1,146c-0.1,0-0.1,0-0.2,0l-29.1-6.7c-0.4-0.1-0.7-0.5-0.6-0.9c0.1-0.4,0.5-0.7,0.9-0.6l29.1,6.7
					c0.4,0.1,0.7,0.5,0.6,0.9C312.8,145.8,312.5,146,312.1,146z"/>
			</g>
			<g>
				<path class="st2" d="M287.3,148.6c4.5-6.4,9.4-9.3,13.6-8.5c4.2,0.8-4.2,5.5-4.2,5.5s-0.3,7-1.7,8.9S287.3,148.6,287.3,148.6z"
					/>
			</g>
			<g>
				<path class="st0" d="M301.9,140.2c-1.3-2.4-5.2-0.5-6.8,0.3c-3.2,1.5-5.8,3.8-7.9,6.5c-0.4,0.5,0.5,1,0.9,0.5
					c2-2.6,4.6-4.8,7.6-6.2c0.7-0.3,1.6-0.8,2.4-0.9c3.1-0.7,3.4,1.2,2,2.5c-1.2,1.2-2.8,2-4.3,2.7c-0.2,0.1-0.3,0.4-0.2,0.6
					c0.8,2.5,0.6,4.9-0.7,7.2c-0.3,0.6,0.5,1.1,0.9,0.5c0.8-1.5,1.4-3,1.4-4.7c0-0.6-0.3-1.5-0.2-2.1c0.1-1.1,0.5-1,1.4-1.6
					C299.8,144.6,303.1,142.4,301.9,140.2z"/>
			</g>
		</g>
		<g id="Window_3_1_">
			<g>
				<polygon class="st2" points="416,218.8 298.6,218.8 267.3,186.7 257.5,176.7 374.9,176.7 384.7,186.7 				"/>
				<path class="st0" d="M417.8,219.5H298.3L255.7,176h119.5L417.8,219.5z M299,218h115.3l-39.7-40.6H259.3L299,218z"/>
			</g>
			<g>
				<polygon class="st1" points="312.2,195.2 285.9,195.2 278.9,188 276.7,185.7 303,185.7 305.2,188 				"/>
			</g>
			<g>
				<polygon class="st1" points="365,211.4 323.3,211.4 318.4,206.4 316.9,204.8 358.6,204.8 360.1,206.4 				"/>
			</g>
			<g>
				<polygon class="st1" points="382.3,211.4 369.4,211.4 364.6,206.4 363,204.8 375.9,204.8 377.4,206.4 				"/>
			</g>
			<g>
				<polygon class="st1" points="384.7,201.7 371.9,201.7 367,196.7 365.5,195.2 378.3,195.2 379.9,196.7 				"/>
			</g>
			<g>
				<polygon class="st1" points="400.1,211.4 387.3,211.4 382.4,206.4 380.8,204.8 393.7,204.8 395.2,206.4 				"/>
			</g>
		</g>
		<g id="Lines_17_">
			<g>
				<path class="st0" d="M312.2,139.9c-0.1,0-0.2,0-0.3,0c-0.4-0.1-0.6-0.6-0.4-1l3.8-10.2c0.1-0.4,0.6-0.6,1-0.4
					c0.4,0.1,0.6,0.6,0.4,1l-3.8,10.2C312.8,139.8,312.5,139.9,312.2,139.9z"/>
			</g>
			<g>
				<path class="st0" d="M316.9,142.6c-0.2,0-0.3-0.1-0.5-0.2c-0.3-0.3-0.4-0.7-0.1-1.1l4.1-5.4c0.3-0.3,0.7-0.4,1.1-0.1
					s0.4,0.7,0.1,1.1l-4.1,5.4C317.3,142.5,317.1,142.6,316.9,142.6z"/>
			</g>
		</g>
		<g id="Window_2_1_">
			<g>
				<polygon class="st2" points="410.6,187.9 330.6,187.9 309.3,166.1 302.6,159.3 382.6,159.3 389.3,166.1 				"/>
				<path class="st0" d="M412.4,188.7h-82.1l-29.5-30.2h82.1L412.4,188.7z M330.9,187.2h77.9L382.3,160h-77.9L330.9,187.2z"/>
			</g>
			<g>
				<polygon class="st1" points="393.4,183.5 367.1,183.5 360.1,176.3 357.9,174.1 384.2,174.1 386.4,176.3 				"/>
			</g>
			<g>
				<polygon class="st2" points="389.3,166.1 309.3,166.1 302.6,159.3 382.6,159.3 				"/>
				<path class="st0" d="M391,166.8H309l-8.1-8.3h82.1L391,166.8z M309.6,165.3h77.9l-5.2-5.3h-77.9L309.6,165.3z"/>
			</g>
		</g>
		<g id="Window_32_">
			<g>
				<path class="st0" d="M351.4,155.5h-4c-1.2,0-2.1-1-2.1-2.1v0c0-1.2,1-2.1,2.1-2.1h4c1.2,0,2.1,1,2.1,2.1v0
					C353.6,154.5,352.6,155.5,351.4,155.5z"/>
			</g>
			<g>
				<path class="st0" d="M359.7,155.5h-0.8c-1.2,0-2.1-1-2.1-2.1v0c0-1.2,1-2.1,2.1-2.1h0.8c1.2,0,2.1,1,2.1,2.1v0
					C361.8,154.5,360.9,155.5,359.7,155.5z"/>
			</g>
			<g>
				<path class="st0" d="M372.9,154.1h-7.4c-0.4,0-0.8-0.3-0.8-0.8s0.3-0.8,0.8-0.8h7.4c0.4,0,0.8,0.3,0.8,0.8
					S373.3,154.1,372.9,154.1z"/>
			</g>
			<g>
				<path class="st0" d="M401.6,171.5h-65.2l-19.6-20.3c-0.3-0.3-0.3-0.8,0-1.1c0.3-0.3,0.8-0.3,1.1,0l19.1,19.9h61L380,151.1
					l-5-5.2h-62.8c-0.4,0-0.8-0.3-0.8-0.8s0.3-0.8,0.8-0.8h63.4l5.5,5.6L401.6,171.5z"/>
			</g>
			<g>
				<path class="st0" d="M375.1,163.4h-40.7c-0.4,0-0.8-0.3-0.8-0.8s0.3-0.8,0.8-0.8h40.7c0.4,0,0.8,0.3,0.8,0.8
					S375.5,163.4,375.1,163.4z"/>
			</g>
		</g>
	</g>
</g>
</svg>
